<svg xmlns="http://www.w3.org/2000/svg" viewBox="0 0 800 400" width="800" height="400">
  <defs>
    <linearGradient id="c1" x1="0%" y1="0%" x2="100%" y2="100%">
      <stop offset="0%" style="stop-color:#4CAF50" />
      <stop offset="100%" style="stop-color:#388E3C" />
    </linearGradient>
    <linearGradient id="c2" x1="0%" y1="0%" x2="100%" y2="100%">
      <stop offset="0%" style="stop-color:#66BB6A" />
      <stop offset="100%" style="stop-color:#43A047" />
    </linearGradient>
    <linearGradient id="c3" x1="0%" y1="0%" x2="100%" y2="100%">
      <stop offset="0%" style="stop-color:#388E3C" />
      <stop offset="100%" style="stop-color:#2E7D32" />
    </linearGradient>
    <linearGradient id="c4" x1="0%" y1="0%" x2="100%" y2="100%">
      <stop offset="0%" style="stop-color:#43A047" />
      <stop offset="100%" style="stop-color:#2E7D32" />
    </linearGradient>
  </defs>
  
  <rect width="800" height="400" fill="#E8F5E9" rx="10"/>
  
  <!-- Title -->
  <text x="400" y="30" text-anchor="middle" font-size="20" font-weight="700" fill="#2E7D32">
    Key Metrics - FY2025 | 🇨🇭 The Switzerland of BI
  </text>
  
  <!-- Card 1 -->
  <rect x="50" y="60" width="180" height="150" rx="10" fill="url(#c1)" filter="drop-shadow(0 4px 8px rgba(76,175,80,0.3))"/>
  <text x="140" y="90" text-anchor="middle" font-size="11" fill="white">REVENUE</text>
  <text x="140" y="135" text-anchor="middle" font-size="40" font-weight="900" fill="white">$289M</text>
  <text x="140" y="180" text-anchor="middle" font-size="16" font-weight="700" fill="#FFEB3B">+143%</text>
  
  <!-- Card 2 -->
  <rect x="250" y="60" width="180" height="150" rx="10" fill="url(#c2)" filter="drop-shadow(0 4px 8px rgba(102,187,106,0.3))"/>
  <text x="340" y="90" text-anchor="middle" font-size="11" fill="white">CUSTOMERS</text>
  <text x="340" y="135" text-anchor="middle" font-size="40" font-weight="900" fill="white">1,847</text>
  <text x="340" y="180" text-anchor="middle" font-size="14" fill="white">Platform agnostic</text>
  
  <!-- Card 3 -->
  <rect x="450" y="60" width="140" height="150" rx="10" fill="url(#c3)" filter="drop-shadow(0 4px 8px rgba(56,142,60,0.3))"/>
  <text x="520" y="90" text-anchor="middle" font-size="11" fill="white">NRR</text>
  <text x="520" y="135" text-anchor="middle" font-size="40" font-weight="900" fill="white">78%</text>
  <text x="520" y="180" text-anchor="middle" font-size="12" fill="white">Stable</text>
  
  <!-- Card 4 -->
  <rect x="610" y="60" width="140" height="150" rx="10" fill="url(#c4)" filter="drop-shadow(0 4px 8px rgba(67,160,71,0.3))"/>
  <text x="680" y="90" text-anchor="middle" font-size="11" fill="white">FCF</text>
  <text x="680" y="135" text-anchor="middle" font-size="36" font-weight="900" fill="white">$34M</text>
  <text x="680" y="165" text-anchor="middle" font-size="13" fill="#FFEB3B" font-weight="700">✅</text>
  <text x="680" y="185" text-anchor="middle" font-size="11" fill="white">Profitable!</text>
  
  <!-- Platform icons -->
  <rect x="50" y="240" width="700" height="140" rx="10" fill="white" stroke="#4CAF50" stroke-width="3"/>
  <text x="400" y="270" text-anchor="middle" font-size="14" font-weight="700" fill="#2E7D32">Works With All Platforms:</text>
  
  <g transform="translate(80, 290)">
    <rect x="0" y="0" width="100" height="60" rx="8" fill="#E3F2FD" stroke="#2962FF" stroke-width="2"/>
    <text x="50" y="20" text-anchor="middle" font-size="11" font-weight="600" fill="#0D47A1">Snowflake</text>
    <text x="50" y="40" text-anchor="middle" font-size="9" fill="#666">512 customers</text>
    
    <rect x="120" y="0" width="100" height="60" rx="8" fill="#E0F7FA" stroke="#00BCD4" stroke-width="2"/>
    <text x="170" y="20" text-anchor="middle" font-size="11" font-weight="600" fill="#006064">ICBG</text>
    <text x="170" y="40" text-anchor="middle" font-size="9" fill="#666">287 customers</text>
    
    <rect x="240" y="0" width="100" height="60" rx="8" fill="#FFF3E0" stroke="#FF5722" stroke-width="2"/>
    <text x="290" y="20" text-anchor="middle" font-size="11" font-weight="600" fill="#D84315">Querybase</text>
    <text x="290" y="40" text-anchor="middle" font-size="9" fill="#666">341 customers</text>
    
    <rect x="360" y="0" width="100" height="60" rx="8" fill="#F5F5F5" stroke="#888" stroke-width="2"/>
    <text x="410" y="20" text-anchor="middle" font-size="11" font-weight="600" fill="#444">+37 more</text>
    <text x="410" y="40" text-anchor="middle" font-size="9" fill="#666">707 customers</text>
  </g>
</svg>


