<svg xmlns="http://www.w3.org/2000/svg" viewBox="0 0 800 400" width="800" height="400">
  <defs>
    <linearGradient id="dflxGradient" x1="0%" y1="0%" x2="100%" y2="0%">
      <stop offset="0%" style="stop-color:#4CAF50" />
      <stop offset="100%" style="stop-color:#2E7D32" />
    </linearGradient>
    <linearGradient id="dflxArea" x1="0%" y1="0%" x2="0%" y2="100%">
      <stop offset="0%" style="stop-color:#4CAF50;stop-opacity:0.3" />
      <stop offset="100%" style="stop-color:#4CAF50;stop-opacity:0.05" />
    </linearGradient>
  </defs>
  
  <rect width="800" height="400" fill="#E8F5E9" rx="10"/>
  
  <!-- Swiss flag watermark -->
  <text x="700" y="350" font-size="100" opacity="0.05">🇨🇭</text>
  
  <!-- Title -->
  <text x="400" y="35" text-anchor="middle" font-family="-apple-system, sans-serif" font-size="22" font-weight="700" fill="#1a1a1a">
    📊 Revenue Growth: Platform-Agnostic BI
  </text>
  <text x="400" y="55" text-anchor="middle" font-family="-apple-system, sans-serif" font-size="14" fill="#666">
    The Switzerland of Business Intelligence
  </text>
  
  <!-- Grid -->
  <line x1="100" y1="350" x2="700" y2="350" stroke="#2E7D32" stroke-width="2"/>
  <line x1="100" y1="100" x2="100" y2="350" stroke="#2E7D32" stroke-width="2"/>
  
  <!-- Area -->
  <path d="M 150,310 L 350,255 L 550,180 L 650,135 L 650,350 L 150,350 Z" fill="url(#dflxArea)"/>
  
  <!-- Line -->
  <path d="M 150,310 L 350,255 L 550,180 L 650,135" stroke="url(#dflxGradient)" stroke-width="4" fill="none"/>
  
  <!-- Points -->
  <circle cx="150" cy="310" r="8" fill="#2E7D32" stroke="white" stroke-width="3"/>
  <circle cx="350" cy="255" r="8" fill="#2E7D32" stroke="white" stroke-width="3"/>
  <circle cx="550" cy="180" r="8" fill="#2E7D32" stroke="white" stroke-width="3"/>
  <circle cx="650" cy="135" r="10" fill="#4CAF50" stroke="white" stroke-width="3"/>
  
  <!-- Labels -->
  <text x="150" y="375" text-anchor="middle" font-size="14" font-weight="600">FY2023</text>
  <text x="350" y="375" text-anchor="middle" font-size="14" font-weight="600">FY2024</text>
  <text x="550" y="375" text-anchor="middle" font-size="14" font-weight="600">FY2025</text>
  
  <!-- Values -->
  <text x="150" y="300" text-anchor="middle" font-size="14" font-weight="700" fill="#2E7D32">$64M</text>
  <text x="350" y="245" text-anchor="middle" font-size="14" font-weight="700" fill="#2E7D32">$119M</text>
  <text x="550" y="170" text-anchor="middle" font-size="14" font-weight="700" fill="#2E7D32">$289M</text>
  
  <!-- Growth -->
  <text x="250" y="285" text-anchor="middle" font-size="12" fill="#4CAF50" font-weight="600">+87%</text>
  <text x="450" y="220" text-anchor="middle" font-size="12" fill="#4CAF50" font-weight="600">+143%</text>
  
  <!-- Profitability indicator -->
  <rect x="600" y="90" width="90" height="35" rx="17.5" fill="#4CAF50"/>
  <text x="645" y="113" text-anchor="middle" font-size="14" font-weight="900" fill="white">✅ Profitable</text>
  
  <!-- Y-axis -->
  <text x="85" y="140" text-anchor="end" font-size="12" fill="#666">$300M</text>
  <text x="85" y="245" text-anchor="end" font-size="12" fill="#666">$150M</text>
  <text x="85" y="355" text-anchor="end" font-size="12" fill="#666">$0</text>
  
  <text x="750" y="390" text-anchor="end" font-size="10" fill="#666">NASDAQ: DFLX</text>
</svg>


