<svg xmlns="http://www.w3.org/2000/svg" viewBox="0 0 800 400" width="800" height="400">
  <defs>
    <linearGradient id="vltaGradient" x1="0%" y1="0%" x2="100%" y2="0%">
      <stop offset="0%" style="stop-color:#FDD835" />
      <stop offset="100%" style="stop-color:#F57F17" />
    </linearGradient>
    <linearGradient id="vltaArea" x1="0%" y1="0%" x2="0%" y2="100%">
      <stop offset="0%" style="stop-color:#FDD835;stop-opacity:0.4" />
      <stop offset="100%" style="stop-color:#FDD835;stop-opacity:0.05" />
    </linearGradient>
  </defs>
  
  <rect width="800" height="400" fill="#FFFDE7" rx="10"/>
  
  <!-- Electric bolts decoration -->
  <text x="50" y="80" font-size="40" opacity="0.15">⚡</text>
  <text x="720" y="350" font-size="40" opacity="0.15">⚡</text>
  <text x="400" y="200" font-size="60" opacity="0.08">⚡</text>
  
  <!-- Title -->
  <text x="400" y="35" text-anchor="middle" font-family="-apple-system, sans-serif" font-size="22" font-weight="900" fill="#1a1a1a">
    ⚡ Revenue Growth: 312% - HIGHEST GROWTH RATE
  </text>
  
  <!-- Grid -->
  <line x1="100" y1="350" x2="700" y2="350" stroke="#F57F17" stroke-width="2"/>
  <line x1="100" y1="100" x2="100" y2="350" stroke="#F57F17" stroke-width="2"/>
  
  <!-- Area (steep climb) -->
  <path d="M 150,345 L 350,305 L 550,165 L 650,100 L 650,350 L 150,350 Z" fill="url(#vltaArea)"/>
  
  <!-- Line (rocket trajectory) -->
  <path d="M 150,345 L 350,305 L 550,165 L 650,100" stroke="url(#vltaGradient)" stroke-width="5" fill="none"/>
  
  <!-- Points -->
  <circle cx="150" cy="345" r="8" fill="#F57F17" stroke="#1a1a1a" stroke-width="2"/>
  <circle cx="350" cy="305" r="8" fill="#F57F17" stroke="#1a1a1a" stroke-width="2"/>
  <circle cx="550" cy="165" r="10" fill="#FDD835" stroke="#1a1a1a" stroke-width="3"/>
  <circle cx="650" cy="100" r="12" fill="#FDD835" stroke="#F57F17" stroke-width="4"/>
  
  <!-- Lightning at peak -->
  <text x="665" y="100" font-size="28">⚡</text>
  
  <!-- Labels -->
  <text x="150" y="375" text-anchor="middle" font-size="14" font-weight="700">FY2023</text>
  <text x="350" y="375" text-anchor="middle" font-size="14" font-weight="700">FY2024</text>
  <text x="550" y="375" text-anchor="middle" font-size="14" font-weight="700">FY2025</text>
  
  <!-- Values -->
  <text x="150" y="335" text-anchor="middle" font-size="14" font-weight="700" fill="#F57F17">$22M</text>
  <text x="350" y="295" text-anchor="middle" font-size="14" font-weight="700" fill="#F57F17">$79M</text>
  <text x="550" y="155" text-anchor="middle" font-size="16" font-weight="900" fill="#F57F17">$327M</text>
  
  <!-- Growth rates -->
  <rect x="225" y="318" width="90" height="25" rx="12.5" fill="#F57F17"/>
  <text x="270" y="335" text-anchor="middle" font-size="13" font-weight="900" fill="white">+267%</text>
  
  <rect x="425" y="228" width="90" height="28" rx="14" fill="#F57F17" filter="drop-shadow(0 3px 8px rgba(245,127,23,0.5))"/>
  <text x="470" y="248" text-anchor="middle" font-size="15" font-weight="900" fill="white">⚡ +312%</text>
  
  <!-- Y-axis -->
  <text x="85" y="108" text-anchor="end" font-size="12" fill="#666">$350M</text>
  <text x="85" y="233" text-anchor="end" font-size="12" fill="#666">$175M</text>
  <text x="85" y="355" text-anchor="end" font-size="12" fill="#666">$0</text>
</svg>


