<svg xmlns="http://www.w3.org/2000/svg" viewBox="0 0 800 400" width="800" height="400">
  <defs>
    <linearGradient id="c1" x1="0%" y1="0%" x2="100%" y2="100%">
      <stop offset="0%" style="stop-color:#37474F" />
      <stop offset="100%" style="stop-color:#455A64" />
    </linearGradient>
    <linearGradient id="c2" x1="0%" y1="0%" x2="100%" y2="100%">
      <stop offset="0%" style="stop-color:#455A64" />
      <stop offset="100%" style="stop-color:#546E7A" />
    </linearGradient>
    <linearGradient id="c3" x1="0%" y1="0%" x2="100%" y2="100%">
      <stop offset="0%" style="stop-color:#546E7A" />
      <stop offset="100%" style="stop-color:#607D8B" />
    </linearGradient>
    <linearGradient id="c4" x1="0%" y1="0%" x2="100%" y2="100%">
      <stop offset="0%" style="stop-color:#607D8B" />
      <stop offset="100%" style="stop-color:#78909C" />
    </linearGradient>
  </defs>
  
  <rect width="800" height="400" fill="#ECEFF1" rx="10"/>
  
  <!-- Title -->
  <text x="400" y="30" text-anchor="middle" font-size="20" font-weight="700" fill="#37474F">
    Key Metrics - FY2025 | 🛡️ Governance Leader
  </text>
  
  <!-- Cards -->
  <rect x="50" y="60" width="180" height="150" rx="10" fill="url(#c1)" filter="drop-shadow(0 4px 8px rgba(55,71,79,0.3))"/>
  <text x="140" y="90" text-anchor="middle" font-size="11" fill="white">REVENUE</text>
  <text x="140" y="135" text-anchor="middle" font-size="40" font-weight="900" fill="white">$214M</text>
  <text x="140" y="180" text-anchor="middle" font-size="16" font-weight="700" fill="#A5D6A7">+176%</text>
  
  <rect x="250" y="60" width="180" height="150" rx="10" fill="url(#c2)"/>
  <text x="340" y="90" text-anchor="middle" font-size="11" fill="white">CUSTOMERS</text>
  <text x="340" y="135" text-anchor="middle" font-size="40" font-weight="900" fill="white">1,124</text>
  <text x="340" y="180" text-anchor="middle" font-size="14" fill="white">Cross-platform</text>
  
  <rect x="450" y="60" width="140" height="150" rx="10" fill="url(#c3)"/>
  <text x="520" y="90" text-anchor="middle" font-size="11" fill="white">NRR</text>
  <text x="520" y="135" text-anchor="middle" font-size="40" font-weight="900" fill="white">132%</text>
  <text x="520" y="180" text-anchor="middle" font-size="12" fill="white">Strong</text>
  
  <rect x="610" y="60" width="140" height="150" rx="10" fill="url(#c4)"/>
  <text x="680" y="85" text-anchor="middle" font-size="10" fill="white">EBITDA</text>
  <text x="680" y="128" text-anchor="middle" font-size="36" font-weight="900" fill="white">$27M</text>
  <text x="680" y="160" text-anchor="middle" font-size="13" fill="#A5D6A7" font-weight="700">✅</text>
  <text x="680" y="180" text-anchor="middle" font-size="11" fill="white">Profitable</text>
  
  <!-- Platform coverage -->
  <rect x="50" y="240" width="700" height="135" rx="10" fill="white" stroke="#607D8B" stroke-width="3"/>
  <text x="400" y="270" text-anchor="middle" font-size="16" font-weight="700" fill="#37474F">🛡️ Governance Spans Entire Ecosystem:</text>
  
  <g transform="translate(90, 290)">
    <rect x="0" y="0" width="165" height="50" rx="8" fill="#E3F2FD" stroke="#2962FF" stroke-width="1.5"/>
    <text x="82" y="20" text-anchor="middle" font-size="10" font-weight="600">Data Platforms (3)</text>
    <text x="82" y="38" text-anchor="middle" font-size="9" fill="#666">SNOW, ICBG, QRYQ</text>
    
    <rect x="180" y="0" width="165" height="50" rx="8" fill="#E8EAF6" stroke="#3F51B5" stroke-width="1.5"/>
    <text x="262" y="20" text-anchor="middle" font-size="10" font-weight="600">Integration (2)</text>
    <text x="262" y="38" text-anchor="middle" font-size="9" fill="#666">STRM, DFLX</text>
    
    <rect x="360" y="0" width="165" height="50" rx="8" fill="#FFF9C4" stroke="#FDD835" stroke-width="1.5"/>
    <text x="442" y="20" text-anchor="middle" font-size="10" font-weight="600">AI/ML (1)</text>
    <text x="442" y="38" text-anchor="middle" font-size="9" fill="#666">VLTA</text>
    
    <rect x="540" y="0" width="80" height="50" rx="8" fill="#F5F5F5" stroke="#888" stroke-width="1.5"/>
    <text x="580" y="24" text-anchor="middle" font-size="10" font-weight="600">+81 more</text>
  </g>
</svg>


